<?xml version="1.0"?>
<svg width="640" height="480" xmlns="http://www.w3.org/2000/svg" xmlns:svg="http://www.w3.org/2000/svg">
 <!-- Created with SVG-edit - https://github.com/SVG-Edit/svgedit-->
 <g class="layer">
  <title>Layer 1</title>
  <rect fill="#FF0000" height="9" id="svg_1" stroke="#000000" stroke-width="5" width="0" x="124.5" y="137"/>
  <rect fill="#8ec2f2" height="403.000055" id="svg_2" stroke="#000000" width="543.999963" x="50.5" y="75.999983"/>
  <line fill="none" id="svg_3" stroke="#000000" x1="47.500001" x2="4.500002" y1="122" y2="122"/>
  <line fill="none" id="svg_4" stroke="#000000" x1="49.5" x2="3.500001" y1="275" y2="275"/>
  <line fill="none" id="svg_5" stroke="#000000" x1="51.5" x2="4.499999" y1="431" y2="431"/>
  <line fill="none" id="svg_6" stroke="#000000" x1="596.499999" x2="636.5" y1="122" y2="122"/>
  <line fill="none" id="svg_7" stroke="#000000" x1="593.500001" x2="636.5" y1="274" y2="274"/>
  <text fill="#000000" font-family="serif" font-size="24" id="svg_9" stroke="#000000" stroke-dasharray="null" stroke-linecap="null" stroke-linejoin="null" stroke-width="0" text-anchor="middle" transform="matrix(2.37969 0 0 1.73304 -16.1083 -15.9147)" x="47.950812" xml:space="preserve" y="90.075759">EN</text>
  <text fill="#000000" font-family="serif" font-size="24" id="svg_10" stroke="#000000" stroke-dasharray="null" stroke-linecap="null" stroke-linejoin="null" stroke-width="0" style="cursor: move;" text-anchor="middle" transform="matrix(2.56056 0 0 1.90996 26.3263 -297.991)" x="26.233985" xml:space="preserve" y="307.045047">S1</text>
  <text fill="#000000" font-family="serif" font-size="24" id="svg_11" stroke="#000000" stroke-dasharray="null" stroke-linecap="null" stroke-linejoin="null" stroke-width="0" text-anchor="middle" transform="matrix(3.28012 0 0 1.82004 -110.982 -588.128)" x="62.187364" xml:space="preserve" y="566.792377">R</text>
  <text fill="#000000" font-family="serif" font-size="24" id="svg_15" stroke="#000000" stroke-dasharray="null" stroke-linecap="null" stroke-linejoin="null" stroke-width="0" text-anchor="middle" transform="matrix(1.96287 0 0 2.18805 -767.01 152.992)" x="666.123254" xml:space="preserve" y="-5.234462">ENO</text>
  <text fill="#000000" font-family="serif" font-size="24" id="svg_16" stroke="#000000" stroke-dasharray="null" stroke-linecap="null" stroke-linejoin="null" stroke-width="0" text-anchor="middle" transform="matrix(2.03789 0 0 1.52924 -673.238 18.9538)" x="602.699841" xml:space="preserve" y="174.079956">Q1</text>
  <text fill="#000000" font-family="serif" font-size="24" id="svg_17" stroke="#000000" stroke-dasharray="null" stroke-linecap="null" stroke-linejoin="null" stroke-width="0" text-anchor="middle" transform="matrix(3.69488 0 0 2.83413 -311.023 -36.0605)" x="173.219153" xml:space="preserve" y="109.882685">SR</text>
  <text fill="#000000" font-family="serif" font-size="24" id="svg_18" stroke="#000000" stroke-dasharray="null" stroke-linecap="null" stroke-linejoin="null" stroke-width="0" style="cursor: move;" text-anchor="middle" transform="matrix(2.8161 0 0 1.85327 -422.829 -13.3281)" x="264.312232" xml:space="preserve" y="35.257109">SR0</text>
 </g>
</svg>